<svg xmlns="http://www.w3.org/2000/svg" width="750" height="383.38" viewBox="0 0 750 383.38"><defs><style>.a{fill:#fff}</style></defs><path class="a" d="M412.43 61a76.1 76.1 0 0 1-.76-8.28c.23-2.7.52-5.34.76-8a4.78 4.78 0 0 0-1.89-3 50.29 50.29 0 0 0-6.39-1.51c-1.05-.22-2-.45-2.94-.59-3.08-.6-5.34-1.06-8.73-1.75-7.59-1-13.83-2.1-22.87-3-.69-.07-1.35-.07-2-.14-8.67-.61-14.45-.92-23.86-1.37-5.41 0-9.55-.22-16.16 0-6 .31-11.74.53-18 .9l-3.84.23c-10.61 1.27-20.54 2.71-30.77 4.14a5 5 0 0 0-.83 3.08 4.51 4.51 0 0 0 1.58 2.63c3.68.3 7 .24 10.53.39l9.4.76c6.55.43 9.25.9 13.92 1.41.23 0 .45.08.66.08 7.61 1 13.09 1.95 20.31 3.38l17.68 4.22L367.61 60l8.79 2.49c8 2.32 14.82 4.65 22.49 7.2.76.24 1.58.48 2.33.77 3.53 1 6.92 2.17 10.45 3 1.21-.16 1.65-.31 1.88-1.52-.36-3.55-.74-7.23-1.12-10.94z"/><path class="a" d="M231.06 177.48V179c.09-.09.23-.15.31-.23a6.06 6.06 0 0 0-.31-1.29z"/><path class="a" d="M231.06 170.48v-3.09a3.68 3.68 0 0 0-.07 3.09z"/><path class="a" d="M441 96.6a30.84 30.84 0 0 1-6.4-.38 12.63 12.63 0 0 1-2.48-.22 43 43 0 0 1-5.42-.9 58.67 58.67 0 0 1-9-2.25c-3.6-1.29-7.21-2.56-10.9-3.76-1.89-.68-3.77-1.35-5.57-2-5.79-2.1-11.58-4.22-17.3-6.31-6.09-2.33-11-4.08-16.32-6-1.21-.37-2.34-.74-3.55-1.18-13.69-4.6-17.38-5.81-26.33-8.59-11.36-3.3-15.34-4.37-24.07-6.54-1.58-.29-2.86-.58-4.06-.9-4.22-.83-6.77-1.34-13.16-2.47-5.8-1.13-9-1.44-14.3-2.2-5.95-.45-9.25-.59-13.91-.82h-1.89c-3.68 0-6.54-.15-10.07-.15-1.89-.15-3.09.15-5 0-4 .39-8.94.89-10.3 1.45a21.7 21.7 0 0 0-6.25 1.55 25.26 25.26 0 0 0-3.68 2c-.37.23-.75.46-1.2.76a27.75 27.75 0 0 0-4.66 3.61 19.9 19.9 0 0 0-3.18 4.31 31.52 31.52 0 0 0-1.89 4.52 24.41 24.41 0 0 0-.3 4.51 23.08 23.08 0 0 0 1.43 6.46 22.23 22.23 0 0 0 2.4 3.68 14.08 14.08 0 0 0 4 3.16c.83-.15.6-1 .38-1.57-.45-1.2-1.57-2.18-2.18-4.29-.45-2.18-.07-3.38.46-5.48a15.27 15.27 0 0 1 4.81-5.41c.09-.08.23-.25.31-.31a58.53 58.53 0 0 1 9-5.65 49.29 49.29 0 0 1 12.41-3.45c4.29-.31 7.75-.62 12.79-.77h.75c3.39-.14 6.48-.14 10.16 0 6.47.46 12.71 1 19.55 1.88 4.66.76 9.1 1.51 13.55 2.41 4.88.91 9.69 2 15 3 7.59 2 12.87 3.16 21 5.8 7.16 2.26 13.32 4.21 21.52 7l.54.14 15.93 5.51c5.79 2.11 10.68 3.6 16.85 5.7.29.15.53.24.83.39a12.51 12.51 0 0 1 3.31 1.88 21.17 21.17 0 0 1 1.88 6.09c.29 1.65.6 3.31.9 5a3.85 3.85 0 0 0 1.35.69 18.87 18.87 0 0 0 1.88-5.27c.3-1.06.53-2 .75-3.09a5 5 0 0 1 2.63-.75c1.66.29 3.24.51 4.9.75a66.53 66.53 0 0 0 7.52 1.21c2.41.3 3.31.51 5.79.67a.31.31 0 0 0 .22.07 81.23 81.23 0 0 0 9.78 0 25.41 25.41 0 0 0 5.34-1 3.64 3.64 0 0 0 .67-1.72 10.5 10.5 0 0 0-3.08-.47c-1.04-.15-2.09-.15-4.14-.3z"/><path class="a" d="M466.22 79.22a24.64 24.64 0 0 0-3.76-5.78 32.09 32.09 0 0 0-6-4.45 27.29 27.29 0 0 0-6-2.63 46.63 46.63 0 0 0-5.27-1.51 39.7 39.7 0 0 0-7.52-.76c-2-.14-3.75-.29-5.5-.45a76.08 76.08 0 0 0-12.78.45 5.75 5.75 0 0 0-2.82 1.91c-.46 3.62-.61 4.89 0 7.16.53 1.93 1.05 3 2.64 3.82a17.88 17.88 0 0 0 6.38-.36 19.18 19.18 0 0 1 4.89-.77 14 14 0 0 1 1.65-.07c1.29.07 2.1.22 4 .46a42.56 42.56 0 0 1 6.77 1.12c2.56.53 3.08.83 6.76 2.25 3 1.51 3.55 1.65 5.65 4.51a15.09 15.09 0 0 1 1.89 5.35 9 9 0 0 0 .74 2.62c.29.84.83 1 1.88.77 1.5-.92 2.48-2.56 3.76-4.14.82-1.51 1.73-2.87 2.63-4.6a9 9 0 0 0 .01-4.9z"/><path class="a" d="M419.87 134.82c-1-.68-1.87.15-2.77.83-1.51 2.26-3 4.59-4.52 6.77a68.94 68.94 0 0 1-10.53 12.49l-.83.84c-2 1.72-3.76 2.92-5.72 4.43-1 1-1.74 2.79-1.35 3.47a2.31 2.31 0 0 0 2.63.38c1.5-1.06 2.93-2.11 4.44-3.23 2-1.58 4.14-3.25 6.17-5a61.58 61.58 0 0 0 7.38-8.45l3.83-6.83 1.89-3.37a1.75 1.75 0 0 0-.62-2.33z"/><path class="a" d="M393.62 9.2a33.79 33.79 0 0 1 7.15 1.12 1.18 1.18 0 0 0 .45.15 24.69 24.69 0 0 1 3.31 1.72 6.91 6.91 0 0 1 3.16 2.86 13.38 13.38 0 0 1 1.74 7c.29-.15.52.76.73.6.23.15.46-.76.61-.67a9.42 9.42 0 0 0 .61-3.32c.38-2 .07-3.39-.45-5.72A10.59 10.59 0 0 0 408.36 9a15 15 0 0 0-4.28-2.11c-1.2-.3-2-.53-2.86-.66A22.86 22.86 0 0 0 395.5 6l-9.79 1.34a3.27 3.27 0 0 0 .76 1.89z"/><path class="a" d="M401.22 148.41c.91-1.12 1.51-1.79 1.51-1.79s5.34-8.12 5.57-10.6-1.89-2.57-1.89-2.57l-5.19-.45-4.59-.45c-1.58-.14-16.41-4.37-20.61-6a27.7 27.7 0 0 0-8.42-1.65c-1.66 0-3.25 0-4.67.14-4.15.29-9.78 4.89-9.78 4.89-1 .53-2.12-.67-3-1.12L331 115.32c-.44-1.11.15-2.39.75-3.52.54-.92 2.94-2.11 8.29-11.74 2.77-5 3.52-8.5 3.45-11.8a12.11 12.11 0 0 0-2.71-6.78c-2-2.7-9.25-3.76-17.76-5-4.2-.6-8.79-1.21-13.37-1.59a100 100 0 0 0-10.24-.51 141.11 141.11 0 0 0-16.54.82 23.66 23.66 0 0 0-5.35.84c-3.31.89-8.34 2.63-9.85 6a17.13 17.13 0 0 0-1.29 2.32c-3.3 7-4.21 17.68-4.21 21.08 0 1.42-.53 7-.3 11.65a27.47 27.47 0 0 0 2.25 9 25.39 25.39 0 0 1 2.25 4.29c1 2.33 1.73 5.26.77 7.45-2 4.43 3.68.59 3 1.12s9.41-6.84 10.52-9.47-.38-5.27-1.88-8.36-1-11.28-.75-14 .38-5.71 6.77-8.28 13.91 4.14 15.43 6.78 2.25 11.72 2.25 11.72a100.16 100.16 0 0 1 .67 11.44c-.08 4.83-.53 10.39-.9 14.68-.83 9.86-5.66 16.55-5.41 17.82s1.2.77 2.25.39a26.53 26.53 0 0 0 4-6.18 39.18 39.18 0 0 0 3.47-9.77c1-5.65 1.05-15.34.83-22.26-.15-6.16.67-5.89 2.26-5.72a3.13 3.13 0 0 0 1.42 0c1.12-.22 6.76 4.13 9.77 3s5.58-1.58 6.78-.76l21.06 15.2c1.2.83-.68 2.18-1.13 3.3 0 0-.84 2.27-1.88 5.72s-1.21 4.22-.61 8.05 5.86 7.15 16 8.65a21.18 21.18 0 0 0 6.55-.15c8.49-1.35 17.07-6.54 17.74-7.06A3.92 3.92 0 0 1 388 153c1.06 1 1.28 2.25 1.87 3.4 0 0 .39.88 2 1 1.23.06 6.65-5.87 9.35-8.99zm-33.61 6.26h-.16a4.77 4.77 0 0 1-4.5-5.12 5 5 0 0 1 4.67-5.12h.06c2.48 0 4.5 2.33 4.45 5.12a5 5 0 0 1-4.52 5.13z"/><path class="a" d="M276.88 35.68a29.67 29.67 0 0 0 5.71-1.13 4.4 4.4 0 0 0 2.19-1.5c.08-3.76.22-7.59.38-11.35.15-2.26.53-4.67.89-6.93.91-1.65 1.21-2 3.46-3.24a58.53 58.53 0 0 1 10.32-4.21c3.3-1 6.38-1.8 9.78-2.55.82-.15 1.73-.31 2.54-.54 6-.37 7.3-.29 11.67-.37h5.27c5.64.37 8.72.84 14.29 1.59a2 2 0 0 0 .37-2C336.83 1.82 333.3.92 328 .47a152.91 152.91 0 0 0-17-.37c-.45.07-.9.07-1.42.14-2.26.24-4.52.39-6.86.62L296.44 2c-2 .51-4.07 1-6 1.5-3.31 1.06-5.72 1.87-8.8 3.15a9.76 9.76 0 0 0-4 3 31.06 31.06 0 0 0-1.13 5.19c-.6 6.33-1.13 12.64-1.13 19a2.88 2.88 0 0 0 1.5 1.84z"/><path class="a" d="M267.17 207.86c-.3-.38-.53-.76-.83-1.12-2.47-3.17-4.43-6-6.91-9.1-2.86-3.76-5.27-7.08-8.51-11.52a139.74 139.74 0 0 1-8.5-11.73 35.86 35.86 0 0 1-3.39-6.61c.67-1.36 1.21-2.49 1.88-4.07 1.12-2.49 2-4 2.78-6.18a18.64 18.64 0 0 0 1.28-3.75c0-.68.22-1-1-1.66-1.28-.36-1.88.3-2.48 1.12A62.13 62.13 0 0 1 237 161c-2.34 2.94-4.52 4.67-5.86 6.25-.09 0-.09.07-.09.14v3.09a29.43 29.43 0 0 0 2.56 4.91c3.54 4.87 5.64 7.58 9 11.73 3.53 3.9 5.79 6.24 9.4 10.07 4.29 4.66 8.35 8.72 12.79 12.93.52.46 1 1 1.5 1.44 4.22 4 7.75 7.29 12 10.68a2 2 0 0 0 2.25-.77c-4.72-4.47-8.94-8.88-13.38-13.61z"/><path class="a" d="M273.88 170.85a52.91 52.91 0 0 1-7.54-.74 13.88 13.88 0 0 1-4.06-1.52c-1.88-1.65-3.76-3.69-3.76-4.51.76-1.41 1.21-2.48.68-3.85a3.67 3.67 0 0 0-2.63-1.49 4.67 4.67 0 0 0-3 1.13 6.3 6.3 0 0 0-1.51 2.25 9.71 9.71 0 0 0 1.13 4.88 15.4 15.4 0 0 0 5.64 5.35 24.4 24.4 0 0 0 6.17 2.17 7.63 7.63 0 0 0 1.35.08 40 40 0 0 0 9-.75 13.2 13.2 0 0 0 3.38-1.12 10 10 0 0 0 2.64-2.63c-1.44 0-2.26.36-3.4.36a20 20 0 0 1-4.09.39z"/><path class="a" d="M227.23 172.36c-7.9 5.17-15.88 10.14-23.85 15.49-5.42 4.07-10.31 7.6-15.5 11.75a33.9 33.9 0 0 0-5.42 5.63c-.15.14-.23.22-.23.3v.16c.08.43 1.35.06 2-.39 3.23-2 6-3.54 10.08-5.71 6.62-3.85 12.86-7.31 19.56-11.38q8.34-4.62 17.15-9.23v-1.51a14.76 14.76 0 0 0-1.28-2.41 10.3 10.3 0 0 0-2.51-2.7z"/><g><path class="a" d="M340 326.7v-9.26h33.71v19.1a88.62 88.62 0 0 1-17.15 5.72 90 90 0 0 1-17.69 1.52q-12.6 0-20.53-2.72A26.4 26.4 0 0 1 306 333a19 19 0 0 1-4.37-12.34 18.67 18.67 0 0 1 4.77-12.75q4.78-5.42 14-8.23 7.18-2.17 19.34-2.17 11.72 0 17.53 1.34a26 26 0 0 1 9.64 4.17 17.69 17.69 0 0 1 5.76 7.16l-21.12 2.38a8.51 8.51 0 0 0-4.41-3.87 20.19 20.19 0 0 0-7.93-1.34q-7.19 0-11.45 3.16t-4.27 10q0 7.26 4.34 10.37t12.09 3.11a35.4 35.4 0 0 0 7-.68 50.09 50.09 0 0 0 7.66-2.31v-4.3z"/><path class="a" d="M386.93 320.66q0-11 9.66-17.07t26.9-6.11q17.67 0 27.23 6t9.56 16.81q0 7.85-4.18 12.87T444 341q-7.89 2.79-19.68 2.79-12 0-19.82-2.41a28.38 28.38 0 0 1-12.73-7.63 18.41 18.41 0 0 1-4.84-13.09zm21.85.07q0 6.74 4 9.69t10.86 2.94q7.06 0 10.93-2.88t3.87-10.35q0-6.29-4-9.18t-11-2.9q-6.63 0-10.65 2.95t-4.01 9.73z"/><path class="a" d="M475 298.2h21.85v33.85H531v11h-56z"/><path class="a" d="M544 298.2h54.11v9.69H566v7.81h27.49v9.12H566V343h-22z"/></g><g><path class="a" d="M0 241.49h21.85v33.85H56v11H0z"/><path class="a" d="M68.89 241.49h58.59V251H90.73v7.23h34v9.11h-34v8.83h37.76v10.13h-59.6z"/><path class="a" d="M186.71 279H162l-3.54 7.38h-22.32l26.48-44.85h24l26.52 44.85h-22.9zm-4.62-9.69l-7.68-16.14-7.74 16.14z"/><path class="a" d="M223.36 241.49h32.48a59.4 59.4 0 0 1 15.51 1.65 27.15 27.15 0 0 1 9.77 4.74 18.34 18.34 0 0 1 5.6 7.19 22.05 22.05 0 0 1 1.74 8.69q0 7.19-2.58 11.15a21 21 0 0 1-7.17 6.64 28.87 28.87 0 0 1-9.84 3.56 78.24 78.24 0 0 1-13 1.22h-32.51zm21.85 10.13v24.6h5.35q6.84 0 9.74-1a8.62 8.62 0 0 0 4.53-3.38q1.64-2.41 1.64-7.81 0-7.16-3.67-9.8t-12.15-2.64z"/><path class="a" d="M302.92 241.49h40.89q10.22 0 15.69 3.2t5.48 7.92q0 4-3.91 6.79a20.58 20.58 0 0 1-7.62 3q7.64 1.17 11.25 4a8.73 8.73 0 0 1 3.61 7.14 9.09 9.09 0 0 1-2.56 6.29 17.37 17.37 0 0 1-7 4.42 33.6 33.6 0 0 1-8.3 1.47q-7.39.62-9.8.61h-37.73zm22 17.5h9.53q5.12 0 7.13-1.1a3.47 3.47 0 0 0 2-3.19 3.32 3.32 0 0 0-2-3q-2-1.09-7-1.09h-9.68zm0 17.65h11.21q5.68 0 8-1.27a3.83 3.83 0 0 0 2.33-3.42 3.62 3.62 0 0 0-2.31-3.21q-2.31-1.21-8.08-1.21H324.9z"/><path class="a" d="M382.76 241.49h58.59V251H404.6v7.23h34v9.11h-34v8.83h37.76v10.13h-59.6z"/><path class="a" d="M452.18 241.49h66.4v11.14h-22.27v33.71h-21.85v-33.71h-22.28z"/><path class="a" d="M526.52 241.49h66.4v11.14h-22.27v33.71H548.8v-33.71h-22.28z"/><path class="a" d="M605.78 241.49h58.59V251h-36.74v7.23h34v9.11h-34v8.83h37.76v10.13h-59.61z"/><path class="a" d="M680.41 286.34v-44.85h36.41a82.25 82.25 0 0 1 15.48 1.1 17.91 17.91 0 0 1 8.63 4.08 9.44 9.44 0 0 1 3.28 7.25 9.14 9.14 0 0 1-2.51 6.43 18 18 0 0 1-6.9 4.38 37.16 37.16 0 0 1-7.67 1.77 28.85 28.85 0 0 1 5.67 1.67 28.92 28.92 0 0 1 6.54 5.2l10.65 13H725.3l-11.68-13.72a12.55 12.55 0 0 0-3.95-3.46 13.13 13.13 0 0 0-5.34-1h-1.93v18.23zm22-26.76h9.17a50.69 50.69 0 0 0 5.76-.6 6.82 6.82 0 0 0 3.53-1.38 3.25 3.25 0 0 0 1.37-2.56 3.58 3.58 0 0 0-2.16-3.28q-2.16-1.14-8.11-1.14h-9.57z"/></g><g><path class="a" d="M305.17 382.95l15.28-28.07h5.82l16.35 28.07h-6l-4.62-8.54h-16.85l-4.39 8.54zm11.49-11.57h13.63l-4.18-7.74q-1.88-3.56-2.86-5.86a28.94 28.94 0 0 1-2.19 5.4z"/><path class="a" d="M377.11 373.06l5.28.94a12.75 12.75 0 0 1-6 7 21.5 21.5 0 0 1-10.57 2.4 25.57 25.57 0 0 1-10.52-1.85 13.54 13.54 0 0 1-6.17-5.35 14.28 14.28 0 0 1-2.11-7.52 12.58 12.58 0 0 1 2.39-7.64 14.69 14.69 0 0 1 6.8-5 26.87 26.87 0 0 1 9.71-1.69 21.62 21.62 0 0 1 10.08 2.17 11.88 11.88 0 0 1 5.71 6l-5.21.86a9.08 9.08 0 0 0-4-4.46 14.2 14.2 0 0 0-6.66-1.39 17.16 17.16 0 0 0-7.71 1.55 9.13 9.13 0 0 0-4.35 4.16 12.28 12.28 0 0 0-1.26 5.38 12.63 12.63 0 0 0 1.49 6.24 9.12 9.12 0 0 0 4.62 4 17.31 17.31 0 0 0 6.79 1.32 14.7 14.7 0 0 0 7.52-1.8 9 9 0 0 0 4.17-5.32z"/><path class="a" d="M386.28 382.95l15.28-28.07h5.82l16.36 28.07h-6l-4.6-8.54h-16.88l-4.39 8.54zm11.49-11.57h13.63l-4.18-7.74q-1.88-3.56-2.86-5.86a28.94 28.94 0 0 1-2.19 5.4z"/><path class="a" d="M429.65 382.95v-28.07h13.8a47.34 47.34 0 0 1 7.13.4 16.45 16.45 0 0 1 5.88 2 12.4 12.4 0 0 1 4.74 4.8 13.85 13.85 0 0 1 1.57 6.67 14.19 14.19 0 0 1-1.07 5.67 12.52 12.52 0 0 1-2.73 4.09 13.31 13.31 0 0 1-3.65 2.55 18.71 18.71 0 0 1-4.78 1.41 38.51 38.51 0 0 1-6.44.48zm5.28-3.33h8.55a29.28 29.28 0 0 0 6.22-.51 10.21 10.21 0 0 0 3.59-1.45 8.81 8.81 0 0 0 2.94-3.55 12.58 12.58 0 0 0 1.05-5.4q0-4.39-2.06-6.76a10 10 0 0 0-5-3.17 29.18 29.18 0 0 0-6.86-.57h-8.42z"/><path class="a" d="M471.89 382.95v-28.07h28.86v3.33h-23.58v8.54h22.06v3.33h-22.06v9.55h24.53v3.33z"/><path class="a" d="M510.54 382.95v-28.07h7.94l9.52 19.87q1.32 2.78 1.93 4.16.69-1.53 2.16-4.5l9.72-19.53h7v28.07h-5.14v-23.51L532 382.95h-4.68l-11.61-23.8v23.8z"/><path class="a" d="M570.33 382.95v-11.89l-15.48-16.18h6.34l8 8.52q2.19 2.39 4.11 4.71 1.85-2.22 4.47-5l7.71-8.28h6.16l-16 16.18v11.89z"/></g><g><path class="a" d="M600.64 362.59v-7.3h-4.45v-1h10.67v1h-4.45v7.3z"/><path class="a" d="M609.24 362.59v-8.29h2.68l3.2 5.87c.29.55.51 1 .65 1.23q.23-.45.73-1.33l3.29-5.76h2.37v8.28h-1.74v-6.94l-4 6.94h-1.58l-3.89-7v7z"/></g><g><path class="a" d="M321.31 231.93V205.7h-13.1v-3.51h31.52v3.51h-13.15v26.23z"/><path class="a" d="M345.29 231.93v-29.74h5.26v12.21h20.67v-12.21h5.26v29.74h-5.26v-14h-20.67v14z"/><path class="a" d="M385.36 231.93v-29.74h28.75v3.51h-23.49v9.11h22v3.49h-22v10.12H415v3.51z"/></g></svg>