<svg xmlns="http://www.w3.org/2000/svg" width="120.28" height="116.39" viewBox="0 0 120.28 116.39"><defs><style>.a{fill:#fff}</style></defs><path class="a" d="M66.13 17.38h-7.65V.57h-1.86v18.49h9.51v-1.68z"/><path class="a" d="M101.15 42.21a7.81 7.81 0 0 1 6.45 3.28h2a8.43 8.43 0 0 0-3.19-3.5 9.58 9.58 0 1 0-5.18 17.56 9.74 9.74 0 0 0 8.45-5.16h-2.05a8.06 8.06 0 0 1-6.4 3.38 7.78 7.78 0 1 1-.13-15.55z"/><path class="a" d="M26.82 44.5H29a9.91 9.91 0 0 0-8.66-5.14 9.56 9.56 0 1 0 9.78 9.48A7.58 7.58 0 0 0 30 48h-9.4v1.85h7.57a7.9 7.9 0 1 1-7.83-8.73 8 8 0 0 1 6.48 3.38z"/><path class="a" d="M60.14 50.56l48.26 48.26 1.15-1.15 10.73-10.73-8.08-8.09-10.73 10.73L61.3 49.41l48.25-48.26L108.4 0 60.14 48.25 11.89 0l-1.15 1.15L59 49.41 18.82 89.58 8.08 78.85 0 86.93l11.89 11.89L20 90.73zM118 86.93l-9.58 9.58-1.15-1.16 9.58-9.57zm-2.31-2.31l-9.58 9.57-1.18-1.19 9.58-9.58zm-3.47-3.47l1.15 1.15-9.58 9.58-1.16-1.16zM11.89 96.51l-9.58-9.58 1.16-1.15L13 95.36zm2.31-2.31l-9.58-9.58 1.15-1.16L15.35 93zm2.31-2.31l-9.58-9.58 1.15-1.15 9.57 9.58z"/><path class="a" d="M58 98.21l2.14 18.18 2.14-18.18 2.78-2.78h-9.84L58 98.21z"/><circle class="a" cx="60.14" cy="84.04" r="7.34"/></svg>